<svg width="83" height="83" viewBox="0 0 83 83" fill="none" xmlns="http://www.w3.org/2000/svg">
<circle cx="41.5" cy="41.5" r="39" stroke="#2C5697" stroke-width="5" stroke-dasharray="12 12"/>
<path d="M67.998 36.9816L60.931 35.8266C60.5173 34.4086 59.9517 33.0455 59.2438 31.7554L63.3692 25.8764C63.7028 25.4017 63.6454 24.7549 63.2353 24.3436L58.585 19.6961C58.17 19.2824 57.5172 19.2286 57.0412 19.5717L51.2502 23.7338C49.948 23.014 48.5729 22.4425 47.1464 22.0276L45.9135 14.99C45.8131 14.4185 45.3168 14 44.7357 14H38.1591C37.5731 14 37.0733 14.4245 36.9788 15.0032L35.8357 22.0025C34.4008 22.415 33.0233 22.9805 31.7259 23.6908L25.9504 19.5658C25.4733 19.225 24.824 19.28 24.4091 19.6925L19.7612 24.34C19.351 24.7501 19.2936 25.3958 19.6272 25.8704L23.6916 31.6849C22.9682 32.9941 22.3918 34.3799 21.9721 35.8218L14.9997 36.9828C14.4233 37.0785 14 37.5783 14 38.1617V44.7378C14 45.3177 14.4161 45.8139 14.9865 45.9155L21.959 47.1518C22.3763 48.5902 22.9526 49.976 23.6784 51.2888L19.5639 57.0435C19.2243 57.5182 19.2781 58.1698 19.6906 58.5847L24.3397 63.237C24.7498 63.6471 25.3968 63.7045 25.8715 63.3709L31.6948 59.2925C33.0018 60.0111 34.3829 60.5814 35.8142 60.9951L36.9812 68.0028C37.0757 68.5779 37.5743 69 38.1591 69H44.7357C45.3157 69 45.8119 68.5839 45.9123 68.0136L47.1619 60.9712C48.5956 60.5491 49.9695 59.9752 51.2633 59.2554L57.1285 63.3697C57.6044 63.7057 58.2502 63.6471 58.6615 63.237L63.3106 58.5847C63.7243 58.1698 63.7781 57.5158 63.435 57.0399L59.2522 51.2326C59.9613 49.9413 60.5245 48.5759 60.9346 47.1578L68.0111 45.9155C68.5839 45.8151 69 45.3177 69 44.7378V38.1617C69.0012 37.5759 68.5767 37.0761 67.998 36.9816ZM41.5 49.8696C36.8772 49.8696 33.1297 46.1224 33.1297 41.5C33.1297 36.8776 36.8772 33.1304 41.5 33.1304C46.1228 33.1304 49.8703 36.8776 49.8703 41.5C49.8703 46.1224 46.1228 49.8696 41.5 49.8696Z" fill="#2C5697"/>
</svg>
